<?xml version="1.0" encoding="UTF-8" standalone="no"?>
<svg width="14px" height="15px" viewBox="0 0 14 15" version="1.1" xmlns="http://www.w3.org/2000/svg" xmlns:xlink="http://www.w3.org/1999/xlink">
    <!-- Generator: Sketch 39.1 (31720) - http://www.bohemiancoding.com/sketch -->
    <title>ico_attach</title>
    <desc>Created with Sketch.</desc>
    <defs></defs>
    <g id="Symbols" stroke="none" stroke-width="1" fill="none" fill-rule="evenodd">
        <g id="Messages/message_item-out" transform="translate(-403.000000, -21.000000)" fill="#9CA8B4">
            <g id="message_item">
                <path d="M408.3792,34.0949333 C407.914987,34.5591467 407.29824,34.81408 406.6416,34.81408 C405.98496,34.81408 405.368213,34.5591467 404.904213,34.0949333 C404.440853,33.6315733 404.185707,33.01504 404.185707,32.3584 C404.185707,31.70176 404.44,31.0850133 404.902507,30.62336 L412.400747,23.2074667 C412.673387,22.9358933 413.034987,22.78592 413.4192,22.78592 C413.8032,22.78592 414.165013,22.9358933 414.43744,23.2074667 C414.999147,23.7691733 414.999147,24.6816 414.44,25.2416 L406.941547,32.65664 C406.781547,32.81664 406.502507,32.81664 406.342507,32.65664 C406.177387,32.4917333 406.176533,32.2242133 406.337387,32.0625067 L410.109973,28.3776 C410.223253,28.2666667 410.286613,28.1184 410.28832,27.9598933 C410.290027,27.8016 410.229867,27.6516267 410.119147,27.5392 C409.897493,27.3124267 409.505813,27.3092267 409.280747,27.5300267 L405.503253,31.2200533 C405.199893,31.5234133 405.032427,31.9274667 405.032427,32.3584 C405.032427,32.7882667 405.199893,33.1925333 405.503253,33.4967467 C405.807467,33.8007467 406.21152,33.9684267 406.6416,33.9684267 C407.07168,33.9684267 407.47488,33.8016 407.777387,33.4990933 L415.276693,26.0842667 C415.77248,25.58912 416.044907,24.92992 416.044907,24.2274133 C416.044907,23.52576 415.77248,22.86592 415.276693,22.3707733 C414.780053,21.87328 414.120853,21.6 413.4192,21.6 C412.717547,21.6 412.0592,21.8724267 411.564907,22.36672 L404.065813,29.7824 C403.379093,30.46912 403,31.3841067 403,32.3584 C403,33.33248 403.37824,34.2466133 404.065813,34.9341867 C404.753387,35.6209067 405.668373,36 406.642453,36 C407.61504,36 408.529173,35.62176 409.21568,34.9358933 L415.704213,28.5333333 C415.81664,28.42176 415.88,28.27328 415.880853,28.1149867 C415.881707,27.9566933 415.821547,27.8075733 415.709973,27.6949333 C415.48576,27.47008 415.094933,27.46752 414.869867,27.6900267 L408.3792,34.0949333 Z" id="ico_attach"></path>
            </g>
        </g>
    </g>
</svg>