<?xml version="1.0" encoding="UTF-8" standalone="no"?>
<svg width="16px" height="9px" viewBox="0 0 16 9" version="1.1" xmlns="http://www.w3.org/2000/svg" xmlns:xlink="http://www.w3.org/1999/xlink">
    <!-- Generator: Sketch 39.1 (31720) - http://www.bohemiancoding.com/sketch -->
    <title>ico_eye</title>
    <desc>Created with Sketch.</desc>
    <defs></defs>
    <g id="Mockups" stroke="none" stroke-width="1" fill="none" fill-rule="evenodd">
        <g id="Main--Messages" transform="translate(-1520.000000, -373.000000)" fill="#CAD3DF">
            <g id="Mail-item" transform="translate(725.000000, 365.000000)">
                <g id="view" transform="translate(795.000000, 0.000000)">
                    <path d="M15.9991467,12.4704136 C15.9991467,12.4638329 15.9982933,12.4572521 15.99744,12.4506714 C15.99744,12.4472749 15.9965867,12.4438784 15.9965867,12.4406942 C15.9957333,12.4355994 15.9950933,12.4307169 15.9950933,12.4264713 C15.99424,12.4207397 15.9933867,12.4158572 15.9925334,12.4099133 L15.9925334,12.4082151 C15.9724801,12.2855163 15.9142403,12.1693983 15.8250672,12.0806646 C15.314989,11.4788463 14.7074176,10.9430476 14.090033,10.4537386 C12.7607575,9.39997284 11.2401225,8.51751832 9.56076813,8.16258352 C8.59095803,7.95794407 7.61410795,7.94881597 6.63917787,8.12203773 C5.75171416,8.27955067 4.89667701,8.60795027 4.09667968,9.01510634 C2.84420385,9.65195107 1.700101,10.53016 0.703410989,11.5142974 C0.519304936,11.6968595 0.33498555,11.8826059 0.167519442,12.0806646 C-0.0558398139,12.3445306 -0.0558398139,12.65616 0.167519442,12.9191769 C0.677597741,13.5212074 1.28495572,14.0567938 1.90255366,14.5461029 C3.23246923,15.6000809 4.75331749,16.4823232 6.43160523,16.837258 C7.40162866,17.0421097 8.37826541,17.0512378 9.35340882,16.8778037 C10.2400192,16.7202908 11.0950563,16.3918912 11.895907,15.9847351 C13.1483828,15.3478904 14.2924857,14.4696815 15.2891757,13.4855441 C15.4732818,13.302982 15.6576011,13.1172356 15.8250672,12.9191769 C15.9142403,12.8304432 15.9724801,12.7151743 15.9925334,12.5916264 L15.9925334,12.5899281 C15.9933867,12.5841965 15.99424,12.5791018 15.9950933,12.5733702 C15.9957333,12.5682754 15.9965867,12.5642421 15.9965867,12.5591473 C15.9965867,12.5559631 15.99744,12.5525666 15.99744,12.5491701 C15.9982933,12.5425893 15.9982933,12.5368577 15.9991467,12.530277 C16,12.5202998 16,12.5103225 16,12.5003453 C16,12.4903681 16,12.4803908 15.9991467,12.4704136 L15.9991467,12.4704136 Z M8.00002667,15.5635685 C6.299979,15.5635685 4.92163693,14.1920172 4.92163693,12.5003453 C4.92163693,10.8086734 6.299979,9.43712212 8.00002667,9.43712212 C9.70007433,9.43712212 11.0784164,10.8086734 11.0784164,12.5003453 C11.0784164,14.1920172 9.70007433,15.5635685 8.00002667,15.5635685 Z M9.0191166,12.5003453 C9.0191166,13.8519421 6.98093673,13.8519421 6.98093673,12.5003453 C6.98093673,11.1478994 9.0191166,11.1478994 9.0191166,12.5003453 Z" id="ico_eye"></path>
                </g>
            </g>
        </g>
    </g>
</svg>