<?xml version="1.0" encoding="UTF-8" standalone="no"?>
<svg width="24px" height="24px" viewBox="0 0 24 24" version="1.1" xmlns="http://www.w3.org/2000/svg" xmlns:xlink="http://www.w3.org/1999/xlink">
    <!-- Generator: Sketch 39.1 (31720) - http://www.bohemiancoding.com/sketch -->
    <title>Page 1</title>
    <desc>Created with Sketch.</desc>
    <defs></defs>
    <g id="Symbols" stroke="none" stroke-width="1" fill="none" fill-rule="evenodd">
        <g id="Main/Search" transform="translate(-24.000000, -12.000000)" fill="#9CA8B4">
            <g id="Search">
                <path d="M40.0571454,29.257569 C38.3553278,30.6896164 36.1628212,31.55488 33.7781215,31.55488 C28.4002347,31.55488 24,27.15488 24,21.7776 C24,16.4 28.4002347,12 33.7781215,12 C39.1556883,12 43.555923,16.4 43.555923,21.7776 C43.555923,24.1408541 42.706016,26.3153462 41.2967635,28.0105305 L47.7337458,34.48736 C47.9113553,34.66496 48,34.88736 48,35.11008 C48,35.33248 47.9113553,35.55488 47.7337458,35.73248 L47.7337458,35.73376 C47.5561363,35.91136 47.3337245,36 47.1113126,36 C46.8885807,36 46.6674489,35.91136 46.5336818,35.73376 L40.0571454,29.257569 Z M33.7781215,29.7776 C29.3778868,29.7776 25.7776948,26.1776 25.7776948,21.7776 C25.7776948,17.3776 29.3778868,13.7776 33.7781215,13.7776 C38.1783562,13.7776 41.7785482,17.3776 41.7785482,21.7776 C41.7785482,26.1776 38.1783562,29.7776 33.7781215,29.7776 Z" id="Page-1"></path>
            </g>
        </g>
    </g>
</svg>