<?xml version="1.0" encoding="UTF-8" standalone="no"?>
<svg width="14px" height="16px" viewBox="0 0 14 16" version="1.1" xmlns="http://www.w3.org/2000/svg" xmlns:xlink="http://www.w3.org/1999/xlink">
    <!-- Generator: Sketch 39.1 (31720) - http://www.bohemiancoding.com/sketch -->
    <title>ico_in</title>
    <desc>Created with Sketch.</desc>
    <defs></defs>
    <g id="Symbols" stroke="none" stroke-width="1" fill="none" fill-rule="evenodd">
        <g id="Messages/message_item-in-new" transform="translate(-33.000000, -80.000000)" fill="#9CA8B4">
            <g id="message_item">
                <path d="M46.2862484,96 L33.7137516,96 C33.3197607,96 33,95.6788148 33,95.283437 L33,91.1834074 C33,90.7880296 33.3197607,90.4666074 33.7137516,90.4666074 C34.1077425,90.4666074 34.4275032,90.7880296 34.4275032,91.1834074 L34.4275032,94.566637 L45.5724968,94.566637 L45.5724968,91.1834074 C45.5724968,90.7880296 45.8922575,90.4666074 46.2862484,90.4666074 C46.6802393,90.4666074 47,90.7880296 47,91.1834074 L47,95.283437 C47,95.6788148 46.6802393,96 46.2862484,96 Z M43.5352117,87.4602667 L40.5036707,90.5028741 C40.4237305,90.5832296 40.3233295,90.6462815 40.2110326,90.6806519 C40.1877167,90.688 40.1644008,90.6934519 40.1413228,90.6981926 C40.0965944,90.707437 40.0482972,90.7128889 39.9980967,90.7128889 C39.8781864,90.7128889 39.7658895,90.6842074 39.6681055,90.630637 C39.6469309,90.6194963 39.6274217,90.6074074 39.6079124,90.5943704 C39.5884032,90.5825185 39.568894,90.5675852 39.5491469,90.5519407 C39.5296377,90.5370074 39.5120318,90.521363 39.4953776,90.5035852 L36.4638366,87.4612148 C36.1849976,87.1815111 36.1849976,86.7268741 36.4638366,86.4471704 C36.7433893,86.1677037 37.1951941,86.1677037 37.474033,86.4471704 L39.2852967,88.2676148 L39.2852967,80.716563 C39.2852967,80.3204741 39.6069608,80 39.9990483,80 C40.3930392,80 40.7127999,80.3204741 40.7127999,80.716563 L40.7127999,88.2666667 L42.525967,86.4462222 C42.8048059,86.1667556 43.255659,86.1667556 43.5361634,86.4462222 C43.8140507,86.7259259 43.8140507,87.1815111 43.5352117,87.4602667 Z" id="ico_in"></path>
            </g>
        </g>
    </g>
</svg>