<?xml version="1.0" encoding="UTF-8" standalone="no"?>
<svg width="24px" height="25px" viewBox="0 0 24 25" version="1.1" xmlns="http://www.w3.org/2000/svg" xmlns:xlink="http://www.w3.org/1999/xlink">
    <!-- Generator: Sketch 39.1 (31720) - http://www.bohemiancoding.com/sketch -->
    <title>Combined Shape</title>
    <desc>Created with Sketch.</desc>
    <defs></defs>
    <g id="Mockups" stroke="none" stroke-width="1" fill="none" fill-rule="evenodd">
        <g id="Main--Messages" transform="translate(-470.000000, -1335.000000)" fill="#CAD3DF">
            <path d="M485.230769,1337.77778 C485.230769,1339.31111 483.990154,1340.55556 482.461538,1340.55556 C480.932923,1340.55556 479.692308,1339.31111 479.692308,1337.77778 C479.692308,1336.24444 480.932923,1335 482.461538,1335 C483.990154,1335 485.230769,1336.24444 485.230769,1337.77778 Z M483.846154,1358.61111 C483.846154,1360.46296 481.076923,1360.46296 481.076923,1358.61111 C481.076923,1356.75926 483.846154,1356.75926 483.846154,1358.61111 Z M474.153846,1348.19444 C474.153846,1350.97222 470,1350.97222 470,1348.19444 C470,1345.41667 474.153846,1345.41667 474.153846,1348.19444 Z M493.538462,1348.19444 C493.538462,1349.12037 492.153846,1349.12037 492.153846,1348.19444 C492.153846,1347.26852 493.538462,1347.26852 493.538462,1348.19444 Z M490.049692,1340.58981 C490.376,1340.91713 489.885846,1341.40741 489.559538,1341.08009 C489.233231,1340.75278 489.723385,1340.2625 490.049692,1340.58981 Z M476.342462,1354.325 C477.974,1355.96343 475.526,1358.41759 473.894462,1356.78102 C472.262462,1355.14444 474.710923,1352.68843 476.342462,1354.325 Z M476.838154,1339.11065 C479.122769,1341.40185 475.695385,1344.83981 473.411231,1342.54676 C471.126615,1340.25556 474.554,1336.81944 476.838154,1339.11065 Z M490.531077,1354.82407 C491.511846,1355.80602 490.042769,1357.27824 489.063846,1356.2963 C488.084923,1355.31435 489.552154,1353.84213 490.531077,1354.82407 Z" id="Combined-Shape"></path>
        </g>
    </g>
</svg>