<?xml version="1.0" encoding="UTF-8" standalone="no"?>
<svg width="102px" height="56px" viewBox="0 0 102 56" version="1.1" xmlns="http://www.w3.org/2000/svg" xmlns:xlink="http://www.w3.org/1999/xlink">
    <!-- Generator: Sketch 39.1 (31720) - http://www.bohemiancoding.com/sketch -->
    <title>logo+rus</title>
    <desc>Created with Sketch.</desc>
    <defs></defs>
    <g id="Symbols" stroke="none" stroke-width="1" fill="none" fill-rule="evenodd">
        <g id="Main/Sidebar" transform="translate(-69.000000, -12.000000)">
            <g id="Sidebar">
                <g id="Logo">
                    <g id="logo+rus" transform="translate(69.000000, 12.000000)">
                        <path d="M0.0272,53.9143415 L0.704026667,53.9143415 L1.51957333,49.2695285 L3.92813333,49.2695285 L3.11304,53.9143415 L3.79032,53.9143415 L4.70469333,48.7063415 L0.94112,48.7063415 L0.0272,53.9143415 L0.0272,53.9143415 Z M7.17672,50.0972358 C7.05205333,50.0972358 6.92829333,50.1081626 6.80725333,50.129561 C5.93186667,50.2834472 5.17434667,50.9823089 4.98213333,52.0749919 C4.77450667,53.2578211 5.42912,53.9994797 6.42962667,53.9994797 C6.55293333,53.9994797 6.67986667,53.9880976 6.80725333,53.9644228 C7.60194667,53.8182764 8.42474667,53.206374 8.63418667,52.0135285 C8.83274667,50.8785041 8.24658667,50.0972358 7.17672,50.0972358 L7.17672,50.0972358 Z M7.93650667,52.0372033 C7.80821333,52.7665691 7.34717333,53.321561 6.8068,53.4576911 C6.72293333,53.4790894 6.6368,53.4900163 6.55021333,53.4900163 C5.88834667,53.4900163 5.53474667,52.8717398 5.67890667,52.0517724 C5.78770667,51.4312195 6.17213333,50.779252 6.8068,50.6358374 C6.89066667,50.6167154 6.97861333,50.6066992 7.07109333,50.6066992 C7.87168,50.6062439 8.04757333,51.4025366 7.93650667,52.0372033 L7.93650667,52.0372033 Z M12.2640267,50.1746341 L9.26250667,50.1746341 L9.16912,50.7073171 L10.33056,50.7073171 L9.76797333,53.9143415 L10.4452533,53.9143415 L11.0082933,50.7073171 L12.17064,50.7073171 L12.2640267,50.1746341 L12.2640267,50.1746341 Z M14.3470933,50.0972358 C14.2224267,50.0972358 14.0986667,50.1081626 13.9771733,50.129561 C13.1017867,50.2839024 12.34472,50.9823089 12.1534133,52.0749919 C11.9457867,53.2578211 12.5994933,53.9994797 13.6009067,53.9994797 C13.72376,53.9994797 13.85024,53.9880976 13.9776267,53.9644228 C14.77232,53.8187317 15.59512,53.2068293 15.80456,52.0135285 C16.0035733,50.8785041 15.4165067,50.0972358 14.3470933,50.0972358 L14.3470933,50.0972358 Z M15.10688,52.0372033 C14.97904,52.7665691 14.5184533,53.321561 13.9771733,53.4576911 C13.8933067,53.4790894 13.8076267,53.4900163 13.72104,53.4900163 C13.0591733,53.4900163 12.7055733,52.8717398 12.84928,52.0517724 C12.9585333,51.4312195 13.3434133,50.7797073 13.9776267,50.6358374 C14.0619467,50.6171707 14.1498933,50.6066992 14.2428267,50.6066992 C15.04296,50.6062439 15.2184,51.4025366 15.10688,52.0372033 L15.10688,52.0372033 Z M19.91992,50.1746341 L19.0409067,51.8045528 C18.8156,52.2147642 18.50416,52.8020813 18.36952,53.0884553 L18.3536533,53.0884553 C18.32056,52.7943415 18.2466667,52.3386016 18.1949867,52.0586016 L17.8563467,50.1741789 L17.0253867,50.1741789 L16.08336,53.9138862 L16.7071467,53.9138862 L17.11832,52.1446504 C17.2130667,51.7348943 17.31552,51.2409106 17.4084533,50.7992846 L17.4388267,50.7992846 C17.4701067,51.1480325 17.5367467,51.6884553 17.5993067,52.036748 L17.9352267,53.8906667 L18.4202933,53.8906667 L19.4674933,52.004878 C19.77712,51.4262114 19.93624,51.1320976 20.0958133,50.7915447 L20.1189333,50.7915447 C20.0541067,51.2486504 20.0019733,51.7194146 19.94576,52.1291707 L19.71728,53.9134309 L20.3637333,53.9134309 L20.7585867,50.1737236 L19.91992,50.1737236 L19.91992,50.1746341 Z M23.0270667,52.3686504 C22.88744,52.6386341 22.7605067,52.9245528 22.65216,53.1490081 L22.6362933,53.1490081 C22.61408,52.9245528 22.5737333,52.6313496 22.5247733,52.3845854 L22.10408,50.1746341 L21.3656,50.1746341 L22.1308267,53.6206829 C22.1539467,53.7062764 22.15984,53.7604553 22.15304,53.7977886 C22.1466933,53.8373984 22.1136,53.891122 22.0705333,53.9616911 C21.8479467,54.3086179 21.5786667,54.5713171 21.3678667,54.7188293 C21.1375733,54.8877398 20.8954933,54.9965528 20.71688,55.0507317 L20.7871467,55.6152846 C20.96168,55.5834146 21.3053067,55.4673171 21.6942667,55.1813984 C22.22784,54.7720976 22.6730133,54.1233171 23.3833867,52.8398699 L24.8666933,50.1741789 L24.15088,50.1741789 L23.0270667,52.3686504 L23.0270667,52.3686504 Z M30.6136,51.9752846 C30.38784,52.1223415 30.0609867,52.2302439 29.7685867,52.2302439 C29.17608,52.2302439 29.0541333,51.9138211 29.1389067,51.4344065 L29.35968,50.1746341 L28.6819467,50.1746341 L28.4462133,51.5186341 C28.2966133,52.3686504 28.7567467,52.7315122 29.4566933,52.7315122 C29.8107467,52.7315122 30.2391467,52.6167805 30.5215733,52.4537886 L30.52928,52.4537886 L30.2649867,53.9616911 L30.93456,53.9616911 L31.5996,50.1746341 L30.9300267,50.1746341 L30.6136,51.9752846 L30.6136,51.9752846 Z M35.1999733,50.1746341 L32.198,50.1746341 L32.1046133,50.7073171 L33.2665067,50.7073171 L32.7034667,53.9143415 L33.3812,53.9143415 L33.94424,50.7073171 L35.1065867,50.7073171 L35.1999733,50.1746341 L35.1999733,50.1746341 Z M37.2834933,50.0972358 C37.1588267,50.0972358 37.0350667,50.1081626 36.9135733,50.129561 C36.0381867,50.2839024 35.2806667,50.9823089 35.0889067,52.0749919 C34.88128,53.2578211 35.53544,53.9994797 36.5364,53.9994797 C36.6597067,53.9994797 36.78664,53.9880976 36.9140267,53.9644228 C37.7091733,53.8187317 38.53152,53.206374 38.74096,52.0135285 C38.93952,50.8785041 38.35336,50.0972358 37.2834933,50.0972358 L37.2834933,50.0972358 Z M38.04328,52.0372033 C37.9149867,52.7665691 37.4544,53.321561 36.9135733,53.4576911 C36.8297067,53.4790894 36.7435733,53.4900163 36.6569867,53.4900163 C35.99512,53.4900163 35.64152,52.8717398 35.7852267,52.0517724 C35.89448,51.4312195 36.2789067,50.779252 36.9135733,50.6358374 C36.99744,50.6167154 37.0853867,50.6066992 37.17832,50.6066992 C37.9784533,50.6062439 38.1548,51.4025366 38.04328,52.0372033 L38.04328,52.0372033 Z M44.5350133,51.3870569 C44.0494933,52.0053333 43.6265333,52.5703415 43.2783733,53.1116748 L43.2566133,53.103935 C43.4252533,52.4082602 43.5608,51.7198699 43.70496,50.8999024 L44.0902933,48.7058862 L43.4588,48.7058862 L42.5444267,53.9138862 L43.26024,53.9138862 L45.3401333,51.3178537 C45.79392,50.7460163 46.25496,50.1427642 46.6090133,49.5709268 L46.6307733,49.5795772 C46.46168,50.235187 46.3456267,50.854374 46.1973867,51.6966504 L45.8079733,53.9138862 L46.4394667,53.9138862 L47.3542933,48.7058862 L46.6842667,48.7058862 L44.5350133,51.3870569 L44.5350133,51.3870569 Z M50.3925333,51.6811707 L48.6304267,51.6811707 L48.89472,50.1746341 L48.21744,50.1746341 L47.5610133,53.9143415 L48.2382933,53.9143415 L48.53568,52.2225041 L50.2977867,52.2225041 L50.0008533,53.9143415 L50.6781333,53.9143415 L51.3350133,50.1746341 L50.6577333,50.1746341 L50.3925333,51.6811707 L50.3925333,51.6811707 Z M54.93584,50.1746341 L51.9334133,50.1746341 L51.84048,50.7073171 L53.00192,50.7073171 L52.43888,53.9143415 L53.1170667,53.9143415 L53.6792,50.7073171 L54.8415467,50.7073171 L54.93584,50.1746341 L54.93584,50.1746341 Z M56.91736,50.0972358 C56.7917867,50.0972358 56.66848,50.1095285 56.5497067,50.1322927 C55.6502933,50.3066667 54.99296,51.1097886 54.8179733,52.1068618 C54.6194133,53.2346016 55.17112,53.9994797 56.3171467,53.9994797 C56.39784,53.9994797 56.4749067,53.9972033 56.55016,53.9926504 C57.0257067,53.9644228 57.3833867,53.8537886 57.6064267,53.76 L57.5692533,53.2733008 C57.31176,53.3780163 57.0089333,53.4604228 56.55016,53.4658862 L56.50392,53.4658862 C55.81848,53.4658862 55.3075733,53.0884553 55.454,52.1674146 L58.0697333,52.1674146 C58.0996533,52.0900163 58.1245867,51.9898537 58.1504267,51.8514472 C58.2692,51.1639675 58.14272,50.0972358 56.91736,50.0972358 L56.91736,50.0972358 Z M57.5248267,51.6811707 L55.54784,51.6811707 C55.6684267,51.2645854 55.99664,50.7278049 56.55016,50.6089756 C56.6226933,50.5934959 56.6988533,50.5848455 56.7795467,50.5848455 C57.5406933,50.5843902 57.60688,51.2568455 57.5248267,51.6811707 L57.5248267,51.6811707 Z M61.24352,50.0972358 C61.04496,50.0972358 60.86,50.1254634 60.68728,50.1782764 C60.3296,50.288 60.02768,50.5079024 59.7919467,50.8152195 L59.77608,50.8152195 L59.8504267,50.1746341 L59.2502133,50.1746341 C59.2030667,50.5288455 59.1509333,50.9162927 59.0670667,51.3957073 L58.35624,55.4450081 L59.02672,55.4450081 L59.3825867,53.4126179 L59.3984533,53.4126179 C59.5562133,53.7841301 59.9483467,53.999935 60.4415733,53.999935 C60.52408,53.999935 60.6052267,53.9940163 60.6877333,53.9826341 C61.48832,53.8701789 62.2816533,53.2100163 62.4956267,51.9907642 C62.6937333,50.8625691 62.1501867,50.0972358 61.24352,50.0972358 L61.24352,50.0972358 Z M61.8047467,52.0217236 C61.6728267,52.7683902 61.26392,53.3092683 60.68728,53.4372033 C60.6016,53.4563252 60.51184,53.4658862 60.4189067,53.4658862 C59.9347467,53.4658862 59.5838667,53.1417236 59.5430667,52.6705041 C59.534,52.5849106 59.5430667,52.4929431 59.5607467,52.3923252 L59.6749867,51.7435447 C59.6899467,51.6579512 59.72984,51.5577886 59.7697333,51.4717398 C59.94336,51.0542439 60.3082933,50.7605854 60.6868267,50.6686179 C60.7711467,50.6476748 60.85592,50.6376585 60.9393333,50.6376585 C61.6551467,50.6381138 61.9348533,51.2786992 61.8047467,52.0217236 L61.8047467,52.0217236 Z M65.8104,51.6811707 L64.0492,51.6811707 L64.3139467,50.1746341 L63.6366667,50.1746341 L62.9806933,53.9143415 L63.6579733,53.9143415 L63.9544533,52.2225041 L65.71656,52.2225041 L65.4191733,53.9143415 L66.0964533,53.9143415 L66.7533333,50.1746341 L66.0760533,50.1746341 L65.8104,51.6811707 L65.8104,51.6811707 Z M69.3527467,50.0972358 C69.22536,50.0972358 69.1020533,50.1095285 68.9828267,50.132748 C68.08432,50.307122 67.4269867,51.1102439 67.252,52.1068618 C67.0529867,53.2346016 67.6051467,53.9994797 68.75208,53.9994797 C68.8318667,53.9994797 68.9089333,53.9972033 68.98328,53.9926504 C69.4597333,53.9644228 69.8174133,53.8542439 70.0404533,53.76 L70.00328,53.2733008 C69.7476,53.3780163 69.44296,53.4604228 68.98328,53.4658862 L68.93704,53.4658862 C68.2525067,53.4658862 67.7416,53.0884553 67.8889333,52.1674146 L70.50512,52.1674146 C70.5327733,52.0900163 70.5590667,51.9898537 70.584,51.8514472 C70.7041333,51.1639675 70.57584,50.0972358 69.3527467,50.0972358 L69.3527467,50.0972358 Z M69.9574933,51.6811707 L67.9805067,51.6811707 C68.1010933,51.2645854 68.4302133,50.7273496 68.9828267,50.6089756 C69.05536,50.5934959 69.13152,50.5848455 69.2122133,50.5848455 C69.9742667,50.5843902 70.0409067,51.2568455 69.9574933,51.6811707 L69.9574933,51.6811707 Z M71.1053333,50.7073171 L72.2667733,50.7073171 L71.70464,53.9143415 L72.3828267,53.9143415 L72.94496,50.7073171 L74.1073067,50.7073171 L74.20024,50.1746341 L71.1978133,50.1746341 L71.1053333,50.7073171 L71.1053333,50.7073171 Z M81.5682667,48.7058862 L81.1856533,50.8857886 L78.6755467,50.8857886 L79.0590667,48.7058862 L78.3813333,48.7058862 L77.4665067,53.9138862 L78.14288,53.9138862 L78.5721867,51.4717398 L81.0813867,51.4717398 L80.6529867,53.9138862 L81.32936,53.9138862 L82.2450933,48.7058862 L81.5682667,48.7058862 L81.5682667,48.7058862 Z M85.3948533,50.1746341 L84.27104,52.3686504 C84.13096,52.6386341 84.00448,52.9245528 83.89568,53.1490081 L83.88072,53.1490081 C83.8576,52.9245528 83.8177067,52.6313496 83.7682933,52.3845854 L83.3485067,50.1746341 L82.60912,50.1746341 L83.3743467,53.6206829 C83.3983733,53.7062764 83.40336,53.7604553 83.3974667,53.7977886 C83.3902133,53.8373984 83.3575733,53.891122 83.3140533,53.9616911 C83.09192,54.3086179 82.8235467,54.5713171 82.61184,54.7188293 C82.3824533,54.8877398 82.13992,54.9965528 81.9608533,55.0507317 L82.0306667,55.6152846 C82.2052,55.5834146 82.5497333,55.4673171 82.9391467,55.1813984 C83.47136,54.7720976 83.91744,54.1233171 84.6269067,52.8398699 L86.1115733,50.1741789 L85.3948533,50.1741789 L85.3948533,50.1746341 Z M89.5065867,51.8742114 L91.27368,50.1750894 L90.49712,50.1750894 L88.97936,51.8050081 L88.8483467,51.8050081 L89.1353067,50.1750894 L88.4879467,50.1750894 L88.2009867,51.8050081 L88.07088,51.8050081 L87.1170667,50.1750894 L86.34776,50.1750894 L87.52008,51.8742114 C86.9470667,51.9370407 86.5658133,52.2689431 86.2298933,52.8717398 C86.0367733,53.2186667 85.8454667,53.6129431 85.6305867,53.9143415 L86.292,53.9143415 C86.4547467,53.6835122 86.6079733,53.3903089 86.7879467,53.0643252 C87.1252267,52.4537886 87.4752,52.2602927 88.0065067,52.2602927 L88.12256,52.2602927 L87.8319733,53.9143415 L88.47752,53.9143415 L88.7681067,52.2602927 L88.88416,52.2602927 C89.36832,52.2602927 89.6829333,52.4455935 89.8066933,53.0565854 C89.8570133,53.3821138 89.9105067,53.691252 89.99528,53.9143415 L90.67256,53.9143415 C90.5687467,53.6206829 90.5148,53.2268618 90.4486133,52.8635447 C90.3302933,52.2689431 90.0573867,51.9365854 89.5065867,51.8742114 L89.5065867,51.8742114 Z M93.3812267,50.0972358 C93.25384,50.0972358 93.1305333,50.1095285 93.0113067,50.132748 C92.1128,50.307122 91.4554667,51.1102439 91.28048,52.1068618 C91.0828267,53.2346016 91.6336267,53.9994797 92.78056,53.9994797 C92.8603467,53.9994797 92.9374133,53.9972033 93.01176,53.9926504 C93.4882133,53.9644228 93.8468,53.8542439 94.0689333,53.76 L94.03176,53.2733008 C93.77608,53.3780163 93.47144,53.460878 93.01176,53.4658862 L92.9664267,53.4658862 C92.2809867,53.4658862 91.77008,53.0884553 91.9165067,52.1674146 L94.5345067,52.1674146 C94.56216,52.0900163 94.58664,51.9898537 94.6115733,51.8514472 C94.7326133,51.1639675 94.6034133,50.0972358 93.3812267,50.0972358 L93.3812267,50.0972358 Z M93.9859733,51.6811707 L92.0098933,51.6811707 C92.13048,51.2645854 92.4577867,50.7278049 93.0113067,50.6089756 C93.08384,50.5934959 93.1609067,50.5848455 93.2416,50.5848455 C94.0027467,50.5843902 94.0693867,51.2568455 93.9859733,51.6811707 L93.9859733,51.6811707 Z M98.1598133,50.1746341 L97.8959733,51.6811707 L96.13296,51.6811707 L96.3968,50.1746341 L95.7204267,50.1746341 L95.0635467,53.9143415 L95.7408267,53.9143415 L96.0382133,52.2225041 L97.8012267,52.2225041 L97.50384,53.9143415 L98.1820267,53.9143415 L98.838,50.1746341 L98.1598133,50.1746341 L98.1598133,50.1746341 Z" id="Shape" fill="#000000"></path>
                        <g id="Group" transform="translate(1.360000, 0.000000)">
                            <path d="M42.5902133,44.7212358 L42.5902133,44.7212358 L47.1366933,18.8237398 C47.3688,18.1048455 47.82304,17.528 48.5143733,17.1004878 C49.3426133,16.6201626 50.3467467,16.3642927 51.5272267,16.3287805 L58.1635733,16.3214959 L57.85168,18.0565854 L53.1723733,44.7212358 L42.5902133,44.7212358 L42.5902133,44.7212358 Z" id="Shape" fill="#000000"></path>
                            <polygon id="Shape" fill="#000000" points="74.7365333 16.2982764 74.73744 16.2987317 69.74488 44.7212358 59.2901067 44.7212358 59.2892 44.7203252 64.2785867 16.2982764"></polygon>
                            <path d="M6.18981333,10.1901789 L16.6563733,10.1901789 L16.6563733,10.1838049 C16.6563733,10.1838049 22.9531733,10.1523902 25.36536,10.1523902 C30.2944533,10.1523902 33.20304,13.4905366 32.5443467,18.5624065 C31.9527467,23.1102439 27.9430133,25.8091707 23.6417867,25.8433171 C16.1667733,25.9029593 15.1494933,35.9510894 22.96768,35.9510894 C26.72264,35.9510894 31.3774667,35.5873171 35.87952,32.0392846 C40.9010933,28.0846829 42.13688,23.952065 43.0689333,18.607935 C43.6446667,15.3002927 42.9179733,9.15030894 39.8203467,5.5203252 C36.72136,1.89489431 32.5334667,0.0805853659 27.2521333,0.0805853659 C21.9685333,0.0805853659 8.02309333,0.0537235772 8.02309333,0.0537235772 C8.02309333,0.0537235772 7.11234667,5.10556098 6.18981333,10.1901789 L6.18981333,10.1901789 Z" id="Shape" fill="#000000"></path>
                            <path d="M0.292853333,44.6779837 L0.291493333,44.6775285 L4.37648,21.4206829 C4.37648,21.4206829 11.0042133,21.4443577 11.8410667,21.4270569 C15.7111733,21.4270569 17.3282133,16.2841626 20.6588533,16.2841626 C21.1557067,16.2841626 25.29736,16.2727805 25.29736,16.2727805 C27.2716267,16.2727805 28.0441067,18.0893659 27.9294133,18.9079675 C27.7172533,20.4154146 26.8223733,21.2809106 24.8948,21.2809106 L24.89072,21.2932033 C24.89072,21.2932033 23.60824,21.3023089 22.89016,21.2932033 C19.19776,21.2504065 14.7428533,22.8739512 13.7369067,27.726374 C12.5346667,34.5720325 10.7498933,44.6779837 10.7498933,44.6779837 L0.292853333,44.6779837 L0.292853333,44.6779837 Z" id="Shape" fill="#000000"></path>
                            <path d="M7.23701333,14.3778862 L4.39370667,14.3778862 C4.1752,14.3778862 3.96258667,14.5586341 3.92450667,14.7817236 C3.8828,15.0043577 4.03285333,15.1841951 4.25317333,15.1841951 L7.09557333,15.1841951 C7.31861333,15.1841951 7.52941333,15.0043577 7.5684,14.7817236 C7.60602667,14.5586341 7.45914667,14.3778862 7.23701333,14.3778862 L7.23701333,14.3778862 Z M6.51394667,18.5036748 L3.67154667,18.5036748 C3.44941333,18.5036748 3.2368,18.6857886 3.19872,18.9079675 C3.15973333,19.1296911 3.30706667,19.3122602 3.52693333,19.3122602 L6.37024,19.3122602 C6.59237333,19.3122602 6.80317333,19.1301463 6.84216,18.9079675 C6.88341333,18.6857886 6.73653333,18.5036748 6.51394667,18.5036748 L6.51394667,18.5036748 Z M6.8748,16.4412358 L4.0324,16.4412358 C3.81026667,16.4412358 3.59810667,16.6201626 3.55957333,16.8450732 C3.52149333,17.0667967 3.66792,17.2461789 3.89096,17.2461789 L6.73245333,17.2461789 C6.95368,17.2461789 7.16493333,17.0667967 7.20346667,16.8450732 C7.24381333,16.6201626 7.09693333,16.4412358 6.8748,16.4412358 L6.8748,16.4412358 Z M7.60013333,12.3031545 L4.76,12.3031545 C4.53786667,12.3031545 4.32570667,12.484813 4.28717333,12.7060813 C4.24864,12.929626 4.39688,13.1099187 4.61584,13.1099187 L7.45914667,13.1099187 C7.67992,13.1099187 7.89253333,12.929626 7.93061333,12.7060813 C7.97232,12.484813 7.82453333,12.3031545 7.60013333,12.3031545 L7.60013333,12.3031545 Z M93.3862133,4.48273171 C90.2831467,1.61170732 86.37088,0.177560976 81.6480533,0.177560976 L67.1060267,0.177560976 L65.2836267,10.5548618 L75.76424,10.5548618 L79.8043467,10.6627642 C81.7219467,10.7260488 83.34896,11.1927154 84.6849333,12.0668618 C86.8477867,13.5652033 87.6270667,16.0314797 87.0254933,19.4629593 L83.9559733,36.9613659 C82.8670667,42.5946016 89.92048,44.815935 93.0326133,44.815935 C93.36264,43.023935 97.1411733,21.4133984 97.1411733,21.4133984 L97.1253067,21.4133984 L97.4675733,19.4634146 C98.59592,13.0361626 97.2332,8.03941463 93.3862133,4.48273171 L93.3862133,4.48273171 Z M50.0684,2.58146341 C49.5126133,5.60956098 48.3851733,11.9097886 48.3851733,11.9097886 C48.9649867,11.2664715 49.54072,11.0178862 50.0189867,10.8612683 C50.6128533,10.6650407 51.3676533,10.6053984 52.5504,10.5717073 L59.18856,10.5630569 L61.05992,0.177105691 L54.9430933,0.177105691 C51.9996,0.177560976 50.4677867,1.23837398 50.0684,2.58146341 L50.0684,2.58146341 Z" id="Shape" fill="#FF2600"></path>
                        </g>
                        <path d="M99.71384,0.178926829 C100.0552,0.178926829 100.388853,0.266796748 100.714347,0.44299187 C101.03984,0.619186992 101.293253,0.87095935 101.47504,1.19876423 C101.656827,1.52656911 101.747947,1.8684878 101.747947,2.22406504 C101.747947,2.576 101.65864,2.91473171 101.479573,3.23980488 C101.300053,3.56487805 101.049813,3.81756098 100.72704,3.99694309 C100.403813,4.17678049 100.066533,4.26647154 99.7142933,4.26647154 C99.3616,4.26647154 99.02432,4.17678049 98.7015467,3.99694309 C98.37832,3.81710569 98.1271733,3.56487805 97.9476533,3.23980488 C97.76768,2.91473171 97.6774667,2.576 97.6774667,2.22406504 C97.6774667,1.86803252 97.7685867,1.52656911 97.95128,1.19876423 C98.13352,0.87095935 98.38784,0.619186992 98.7133333,0.44299187 C99.0388267,0.266796748 99.3720267,0.178926829 99.71384,0.178926829 L99.71384,0.178926829 Z M99.71384,0.517658537 C99.4277867,0.517658537 99.14944,0.591414634 98.8788,0.738471545 C98.6077067,0.885528455 98.3964533,1.09586992 98.24368,1.36949593 C98.0909067,1.64312195 98.0142933,1.92813008 98.0142933,2.22406504 C98.0142933,2.51817886 98.0890933,2.80091057 98.2396,3.07043902 C98.3896533,3.34042276 98.5995467,3.55076423 98.86928,3.70146341 C99.1394667,3.85261789 99.4205333,3.92773984 99.71384,3.92773984 C100.006693,3.92773984 100.288213,3.8521626 100.557947,3.70146341 C100.82768,3.55076423 101.03712,3.34042276 101.18672,3.07043902 C101.335867,2.80045528 101.410213,2.51817886 101.410213,2.22406504 C101.410213,1.92813008 101.334507,1.64312195 101.182187,1.36949593 C101.03032,1.09586992 100.818613,0.885528455 100.547067,0.738471545 C100.27552,0.591414634 99.9976267,0.517658537 99.71384,0.517658537 L99.71384,0.517658537 Z M98.8207733,3.3540813 L98.8207733,1.15414634 L99.5733067,1.15414634 C99.8303467,1.15414634 100.016667,1.17463415 100.13136,1.21515447 C100.246507,1.2556748 100.33808,1.32669919 100.406533,1.42777236 C100.474533,1.52884553 100.508987,1.63629268 100.508987,1.75011382 C100.508987,1.91082927 100.451867,2.05105691 100.337627,2.16988618 C100.223387,2.28871545 100.071973,2.35609756 99.8833867,2.37021138 C99.9604533,2.40253659 100.02256,2.44169106 100.069253,2.48676423 C100.1572,2.57326829 100.265547,2.71895935 100.392933,2.92292683 L100.659947,3.35362602 L100.228373,3.35362602 L100.034347,3.00669919 C99.88112,2.73398374 99.7582667,2.56325203 99.66488,2.49450407 C99.6000533,2.44396748 99.5053067,2.41847154 99.3815467,2.41847154 L99.17392,2.41847154 L99.17392,3.35317073 L98.8207733,3.35317073 L98.8207733,3.3540813 Z M99.1743733,2.11570732 L99.6032267,2.11570732 C99.8081333,2.11570732 99.9482133,2.08520325 100.02256,2.02373984 C100.09736,1.96227642 100.134533,1.88123577 100.134533,1.77970732 C100.134533,1.71460163 100.116853,1.6563252 100.080587,1.60487805 C100.044773,1.55343089 99.9949067,1.51518699 99.9309867,1.48969106 C99.8670667,1.46465041 99.7492,1.45190244 99.57648,1.45190244 L99.1743733,1.45190244 L99.1743733,2.11570732 L99.1743733,2.11570732 Z" id="Shape" fill="#000000"></path>
                    </g>
                </g>
            </g>
        </g>
    </g>
</svg>