<?xml version="1.0" encoding="UTF-8" standalone="no"?>
<svg width="20px" height="20px" viewBox="0 0 20 20" version="1.1" xmlns="http://www.w3.org/2000/svg" xmlns:xlink="http://www.w3.org/1999/xlink">
    <!-- Generator: Sketch 39.1 (31720) - http://www.bohemiancoding.com/sketch -->
    <title>ico_staff</title>
    <desc>Created with Sketch.</desc>
    <defs></defs>
    <g id="Symbols" stroke="none" stroke-width="1" fill="none" fill-rule="evenodd">
        <g id="Main/Sidebar" transform="translate(-40.000000, -142.000000)" fill="#9CA8B4">
            <g id="Sidebar">
                <g id="Subnav" transform="translate(0.000000, 128.000000)">
                    <g id="subnav_item">
                        <path d="M47,23.75 C46.31,23.75 45.75,24.31 45.75,25 C45.75,25.69 46.31,26.25 47,26.25 C47.69,26.25 48.25,25.69 48.25,25 C48.25,24.31 47.69,23.75 47,23.75 L47,23.75 Z M53,23.75 C52.31,23.75 51.75,24.31 51.75,25 C51.75,25.69 52.31,26.25 53,26.25 C53.69,26.25 54.25,25.69 54.25,25 C54.25,24.31 53.69,23.75 53,23.75 L53,23.75 Z M50,14 C44.48,14 40,18.48 40,24 C40,29.52 44.48,34 50,34 C55.52,34 60,29.52 60,24 C60,18.48 55.52,14 50,14 L50,14 Z M50,32 C45.59,32 42,28.41 42,24 C42,23.71 42.02,23.42 42.05,23.14 C44.41,22.09 46.28,20.16 47.26,17.77 C49.07,20.33 52.05,22 55.42,22 C56.2,22 56.95,21.91 57.67,21.74 C57.88,22.45 58,23.21 58,24 C58,28.41 54.41,32 50,32 L50,32 Z" id="ico_staff"></path>
                    </g>
                </g>
            </g>
        </g>
    </g>
</svg>