<?xml version="1.0" encoding="UTF-8" standalone="no"?>
<svg width="20px" height="19px" viewBox="0 0 20 19" version="1.1" xmlns="http://www.w3.org/2000/svg" xmlns:xlink="http://www.w3.org/1999/xlink">
    <!-- Generator: Sketch 39.1 (31720) - http://www.bohemiancoding.com/sketch -->
    <title>ico_role</title>
    <desc>Created with Sketch.</desc>
    <defs></defs>
    <g id="Symbols" stroke="none" stroke-width="1" fill="none" fill-rule="evenodd">
        <g id="Main/Sidebar" transform="translate(-40.000000, -191.000000)" fill="#9CA8B4">
            <g id="Sidebar">
                <g id="Subnav" transform="translate(0.000000, 128.000000)">
                    <g id="subnav_item" transform="translate(0.000000, 48.000000)">
                        <path d="M58,19 L54,19 L54,17 C54,15.89 53.11,15 52,15 L48,15 C46.89,15 46,15.89 46,17 L46,19 L42,19 C40.89,19 40.01,19.89 40.01,21 L40,32 C40,33.11 40.89,34 42,34 L58,34 C59.11,34 60,33.11 60,32 L60,21 C60,19.89 59.11,19 58,19 L58,19 Z M52,19 L48,19 L48,17 L52,17 L52,19 L52,19 Z" id="ico_role"></path>
                    </g>
                </g>
            </g>
        </g>
    </g>
</svg>