<?xml version="1.0" encoding="UTF-8" standalone="no"?>
<svg width="20px" height="20px" viewBox="0 0 20 20" version="1.1" xmlns="http://www.w3.org/2000/svg" xmlns:xlink="http://www.w3.org/1999/xlink">
    <!-- Generator: Sketch 39.1 (31720) - http://www.bohemiancoding.com/sketch -->
    <title>ico_logs</title>
    <desc>Created with Sketch.</desc>
    <defs></defs>
    <g id="Symbols" stroke="none" stroke-width="1" fill="none" fill-rule="evenodd">
        <g id="Main/Sidebar" transform="translate(-40.000000, -334.000000)" fill="#9CA8B4">
            <g id="Sidebar">
                <g id="Subnav" transform="translate(0.000000, 128.000000)">
                    <g id="subnav_item" transform="translate(0.000000, 192.000000)">
                        <path d="M51,14 L51,17.03 C54.39,17.52 57,20.42 57,23.95 C57,24.85 56.82,25.7 56.52,26.49 L59.12,28.02 C59.68,26.78 60,25.4 60,23.95 C60,18.77 56.05,14.5 51,14 L51,14 Z M50,30.95 C46.13,30.95 43,27.82 43,23.95 C43,20.42 45.61,17.52 49,17.03 L49,14 C43.94,14.5 40,18.76 40,23.95 C40,29.47 44.47,33.95 49.99,33.95 C53.3,33.95 56.23,32.34 58.05,29.86 L55.45,28.33 C54.17,29.93 52.21,30.95 50,30.95 L50,30.95 Z" id="ico_logs"></path>
                    </g>
                </g>
            </g>
        </g>
    </g>
</svg>