<?xml version="1.0" encoding="UTF-8" standalone="no"?>
<svg width="14px" height="20px" viewBox="0 0 14 20" version="1.1" xmlns="http://www.w3.org/2000/svg" xmlns:xlink="http://www.w3.org/1999/xlink">
    <!-- Generator: Sketch 39.1 (31720) - http://www.bohemiancoding.com/sketch -->
    <title>Shape</title>
    <desc>Created with Sketch.</desc>
    <defs></defs>
    <g id="Symbols" stroke="none" stroke-width="1" fill="none" fill-rule="evenodd">
        <g id="Main/Sidebar" transform="translate(-19.000000, -529.000000)" fill="#9CA8B4">
            <g id="Sidebar">
                <g id="nav_item" transform="translate(0.000000, 512.000000)">
                    <path d="M32,22 L32,19 C32,17.9 31.1,17 30,17 L22,17 C20.9,17 20,17.9 20,19 L20,22 L19,22 L19,28 L22,34 L22,37 L30,37 L30,34 L33,28 L33,22 L32,22 L32,22 Z M22,19 L30,19 L30,22 L28,22 L28,20 L27,20 L27,22 L25,22 L25,20 L24,20 L24,22 L22,22 L22,19 L22,19 Z" id="Shape"></path>
                </g>
            </g>
        </g>
    </g>
</svg>