<?xml version="1.0" encoding="UTF-8" standalone="no"?>
<svg width="20px" height="16px" viewBox="0 0 20 16" version="1.1" xmlns="http://www.w3.org/2000/svg" xmlns:xlink="http://www.w3.org/1999/xlink">
    <!-- Generator: Sketch 39.1 (31720) - http://www.bohemiancoding.com/sketch -->
    <title>Shape</title>
    <desc>Created with Sketch.</desc>
    <defs></defs>
    <g id="Symbols" stroke="none" stroke-width="1" fill="none" fill-rule="evenodd">
        <g id="Main/Sidebar" transform="translate(-16.000000, -481.000000)" fill="#9CA8B4">
            <g id="Sidebar">
                <g id="nav_item" transform="translate(0.000000, 464.000000)">
                    <path d="M35.7583333,29.4453871 C33.2166667,26.9936373 29.7833333,25.4835631 26,25.4835631 C22.2166667,25.4835631 18.7833333,26.9936373 16.2416667,29.4453871 C16.0916667,29.5980912 16,29.8101803 16,30.04772 C16,30.2852598 16.0916667,30.4973489 16.2416667,30.650053 L18.3083333,32.7539767 C18.4583333,32.9066808 18.6666667,33 18.9,33 C19.125,33 19.3333333,32.9066808 19.4833333,32.7624602 C20.1416667,32.1346766 20.8916667,31.6086957 21.7,31.1930011 C21.975,31.0572641 22.1666667,30.7688229 22.1666667,30.4294804 L22.1666667,27.7995758 C23.375,27.3923648 24.6666667,27.1802757 26,27.1802757 C27.3333333,27.1802757 28.625,27.3923648 29.8333333,27.7910923 L29.8333333,30.4209968 C29.8333333,30.7518558 30.025,31.0487805 30.3,31.1845175 C31.1166667,31.6002121 31.8583333,32.1346766 32.5166667,32.7539767 C32.6666667,32.9066808 32.875,32.9915164 33.1,32.9915164 C33.3333333,32.9915164 33.5416667,32.8981972 33.6916667,32.7454931 L35.7583333,30.6415695 C35.9083333,30.4888653 36,30.2767762 36,30.0392365 C36,29.8101803 35.9083333,29.5980912 35.7583333,29.4453871 L35.7583333,29.4453871 Z M33.6333333,20.6139979 L32.4583333,19.4178155 L29.4916667,22.4294804 L30.6666667,23.6256628 C30.6666667,23.6256628 33.5416667,20.6394486 33.6333333,20.6139979 L33.6333333,20.6139979 Z M26.8333333,17 L25.1666667,17 L25.1666667,21.2417815 L26.8333333,21.2417815 L26.8333333,17 L26.8333333,17 Z M21.3333333,23.6256628 L22.5083333,22.4294804 L19.55,19.4093319 L18.3666667,20.6139979 C18.4583333,20.6394486 21.3333333,23.6256628 21.3333333,23.6256628 L21.3333333,23.6256628 Z" id="Shape"></path>
                </g>
            </g>
        </g>
    </g>
</svg>