<?xml version="1.0" encoding="UTF-8" standalone="no"?>
<svg width="20px" height="20px" viewBox="0 0 20 20" version="1.1" xmlns="http://www.w3.org/2000/svg" xmlns:xlink="http://www.w3.org/1999/xlink">
    <!-- Generator: Sketch 39.1 (31720) - http://www.bohemiancoding.com/sketch -->
    <title>ico_messages</title>
    <desc>Created with Sketch.</desc>
    <defs></defs>
    <g id="Symbols" stroke="none" stroke-width="1" fill="none" fill-rule="evenodd">
        <g id="Main/Sidebar" transform="translate(-40.000000, -286.000000)" fill="#9CA8B4">
            <g id="Sidebar">
                <g id="Subnav" transform="translate(0.000000, 128.000000)">
                    <g id="subnav_item" transform="translate(0.000000, 144.000000)">
                        <path d="M58,14 L42,14 C40.9,14 40.01,14.9 40.01,16 L40,34 L44,30 L58,30 C59.1,30 60,29.1 60,28 L60,16 C60,14.9 59.1,14 58,14 L58,14 Z M44,21 L56,21 L56,23 L44,23 L44,21 L44,21 Z M52,26 L44,26 L44,24 L52,24 L52,26 L52,26 Z M56,20 L44,20 L44,18 L56,18 L56,20 L56,20 Z" id="ico_messages"></path>
                    </g>
                </g>
            </g>
        </g>
    </g>
</svg>