<?xml version="1.0" encoding="UTF-8" standalone="no"?>
<svg width="20px" height="20px" viewBox="0 0 20 20" version="1.1" xmlns="http://www.w3.org/2000/svg" xmlns:xlink="http://www.w3.org/1999/xlink">
    <!-- Generator: Sketch 39.1 (31720) - http://www.bohemiancoding.com/sketch -->
    <title>ico_shop</title>
    <desc>Created with Sketch.</desc>
    <defs></defs>
    <g id="Symbols" stroke="none" stroke-width="1" fill="none" fill-rule="evenodd">
        <g id="Main/Sidebar" transform="translate(-40.000000, -382.000000)" fill="#9CA8B4">
            <g id="Sidebar">
                <g id="Subnav" transform="translate(0.000000, 128.000000)">
                    <g id="subnav_item" transform="translate(0.000000, 240.000000)">
                        <path d="M50,21.5 C50.6906667,21.5 51.2501333,20.9405333 51.2501333,20.2501333 L51.2501333,15.2501333 C51.2501333,14.5594667 50.6906667,14 50,14 C49.3093333,14 48.7498667,14.5594667 48.7498667,15.2501333 L48.7498667,20.2501333 C48.7498667,20.9405333 49.3093333,21.5 50,21.5 Z M58.7666667,20.2501333 L52.5168,20.2501333 C52.5168,21.6322667 51.3957333,22.7498667 50.0165333,22.7498667 C48.6344,22.7498667 47.5168,21.6322667 47.5168,20.2501333 L41.2666667,20.2501333 C40.576,20.2501333 39.8802667,20.8552 40.1053333,21.8541333 L42.5168,32.7498667 C42.7272,33.4426667 43.076,34 43.7666667,34 L56.2666667,34 C56.9573333,34 57.2770667,33.4853333 57.5168,32.7498667 L59.9186667,21.8906667 C60.2114667,20.9333333 59.4573333,20.2501333 58.7666667,20.2501333 Z" id="ico_shop"></path>
                    </g>
                </g>
            </g>
        </g>
    </g>
</svg>