<?xml version="1.0" encoding="UTF-8" standalone="no"?>
<svg width="22px" height="14px" viewBox="0 0 22 14" version="1.1" xmlns="http://www.w3.org/2000/svg" xmlns:xlink="http://www.w3.org/1999/xlink">
    <!-- Generator: Sketch 39.1 (31720) - http://www.bohemiancoding.com/sketch -->
    <title>ico_groups</title>
    <desc>Created with Sketch.</desc>
    <defs></defs>
    <g id="Symbols" stroke="none" stroke-width="1" fill="none" fill-rule="evenodd">
        <g id="Main/Sidebar" transform="translate(-40.000000, -241.000000)" fill="#9CA8B4">
            <g id="Sidebar">
                <g id="Subnav" transform="translate(0.000000, 128.000000)">
                    <g id="subnav_item" transform="translate(0.000000, 96.000000)">
                        <path d="M55,23 C56.66,23 57.99,21.66 57.99,20 C57.99,18.34 56.66,17 55,17 C53.34,17 52,18.34 52,20 C52,21.66 53.34,23 55,23 L55,23 Z M47,23 C48.66,23 49.99,21.66 49.99,20 C49.99,18.34 48.66,17 47,17 C45.34,17 44,18.34 44,20 C44,21.66 45.34,23 47,23 L47,23 Z M47,25 C44.67,25 40,26.17 40,28.5 L40,31 L54,31 L54,28.5 C54,26.17 49.33,25 47,25 L47,25 Z M55,25 C54.71,25 54.38,25.02 54.03,25.05 C55.19,25.89 56,27.02 56,28.5 L56,31 L62,31 L62,28.5 C62,26.17 57.33,25 55,25 L55,25 Z" id="ico_groups"></path>
                    </g>
                </g>
            </g>
        </g>
    </g>
</svg>