<?xml version="1.0" encoding="UTF-8" standalone="no"?>
<svg width="20px" height="20px" viewBox="0 0 20 20" version="1.1" xmlns="http://www.w3.org/2000/svg" xmlns:xlink="http://www.w3.org/1999/xlink">
    <!-- Generator: Sketch 39.1 (31720) - http://www.bohemiancoding.com/sketch -->
    <title>Shape</title>
    <desc>Created with Sketch.</desc>
    <defs></defs>
    <g id="Symbols" stroke="none" stroke-width="1" fill="none" fill-rule="evenodd">
        <g id="Main/Sidebar" transform="translate(-40.000000, -430.000000)" fill="#9CA8B4">
            <g id="Sidebar">
                <g id="Subnav" transform="translate(0.000000, 128.000000)">
                    <g id="subnav_item" transform="translate(0.000000, 288.000000)">
                        <path d="M57.6407061,24.98 C57.6818283,24.66 57.7126699,24.34 57.7126699,24 C57.7126699,23.66 57.6818283,23.34 57.6407061,23.02 L59.8098984,21.37 C60.0052286,21.22 60.0566312,20.95 59.9332648,20.73 L57.8771584,17.27 C57.753792,17.05 57.4762176,16.97 57.2500459,17.05 L54.6901934,18.05 C54.1556057,17.65 53.5798959,17.32 52.9527835,17.07 L52.5621232,14.42 C52.5312816,14.18 52.3153905,14 52.0583772,14 L47.9461643,14 C47.689151,14 47.4732598,14.18 47.4424182,14.42 L47.051758,17.07 C46.4246455,17.32 45.8489357,17.66 45.314348,18.05 L42.7544955,17.05 C42.5180432,16.96 42.2507494,17.05 42.127383,17.27 L40.0712766,20.73 C39.9376297,20.95 39.9993129,21.22 40.194643,21.37 L42.3638353,23.02 C42.3227131,23.34 42.2918715,23.67 42.2918715,24 C42.2918715,24.33 42.3227131,24.66 42.3638353,24.98 L40.194643,26.63 C39.9993129,26.78 39.9479102,27.05 40.0712766,27.27 L42.127383,30.73 C42.2507494,30.95 42.5283238,31.03 42.7544955,30.95 L45.314348,29.95 C45.8489357,30.35 46.4246455,30.68 47.051758,30.93 L47.4424182,33.58 C47.4732598,33.82 47.689151,34 47.9461643,34 L52.0583772,34 C52.3153905,34 52.5312816,33.82 52.5621232,33.58 L52.9527835,30.93 C53.5798959,30.68 54.1556057,30.34 54.6901934,29.95 L57.2500459,30.95 C57.4864982,31.04 57.753792,30.95 57.8771584,30.73 L59.9332648,27.27 C60.0566312,27.05 60.0052286,26.78 59.8098984,26.63 L57.6407061,24.98 L57.6407061,24.98 Z M50.0022707,27.5 C48.018128,27.5 46.4040844,25.93 46.4040844,24 C46.4040844,22.07 48.018128,20.5 50.0022707,20.5 C51.9864134,20.5 53.600457,22.07 53.600457,24 C53.600457,25.93 51.9864134,27.5 50.0022707,27.5 L50.0022707,27.5 Z" id="Shape"></path>
                    </g>
                </g>
            </g>
        </g>
    </g>
</svg>