<?xml version="1.0" encoding="UTF-8" standalone="no"?>
<svg width="14px" height="16px" viewBox="0 0 14 16" version="1.1" xmlns="http://www.w3.org/2000/svg" xmlns:xlink="http://www.w3.org/1999/xlink">
    <!-- Generator: Sketch 39.1 (31720) - http://www.bohemiancoding.com/sketch -->
    <title>ico_outgoing</title>
    <desc>Created with Sketch.</desc>
    <defs></defs>
    <g id="Symbols" stroke="none" stroke-width="1" fill="none" fill-rule="evenodd">
        <g id="Messages/message_item-out" transform="translate(-33.000000, -80.000000)" fill="#9CA8B4">
            <g id="message_item">
                <path d="M46.2862484,96 L33.7137516,96 C33.3197607,96 33,95.6788148 33,95.283437 L33,91.1834074 C33,90.7880296 33.3197607,90.4666074 33.7137516,90.4666074 C34.1077425,90.4666074 34.4275032,90.7880296 34.4275032,91.1834074 L34.4275032,94.566637 L45.5724968,94.566637 L45.5724968,91.1834074 C45.5724968,90.7880296 45.8922575,90.4666074 46.2862484,90.4666074 C46.6802393,90.4666074 47,90.7880296 47,91.1834074 L47,95.283437 C47,95.6788148 46.6802393,96 46.2862484,96 Z M43.5352117,83.2526222 L40.5036707,80.2100148 C40.4237305,80.1296593 40.3233295,80.0666074 40.2110326,80.032237 C40.1877167,80.0248889 40.1644008,80.019437 40.1413228,80.0146963 C40.0965944,80.0054519 40.0482972,80 39.9980967,80 C39.8781864,80 39.7658895,80.0286815 39.6681055,80.0822519 C39.6469309,80.0933926 39.6274217,80.1054815 39.6079124,80.1185185 C39.5884032,80.1303704 39.568894,80.1453037 39.5491469,80.1609481 C39.5296377,80.1758815 39.5120318,80.1915259 39.4953776,80.2093037 L36.4638366,83.2516741 C36.1849976,83.5313778 36.1849976,83.9860148 36.4638366,84.2657185 C36.7433893,84.5451852 37.1951941,84.5451852 37.474033,84.2657185 L39.2852967,82.4452741 L39.2852967,89.9963259 C39.2852967,90.3924148 39.6069608,90.7128889 39.9990483,90.7128889 C40.3930392,90.7128889 40.7127999,90.3924148 40.7127999,89.9963259 L40.7127999,82.4462222 L42.525967,84.2666667 C42.8048059,84.5461333 43.255659,84.5461333 43.5361634,84.2666667 C43.8140507,83.986963 43.8140507,83.5313778 43.5352117,83.2526222 Z" id="ico_outgoing"></path>
            </g>
        </g>
    </g>
</svg>